<svg xmlns="http://www.w3.org/2000/svg" xmlns:xlink="http://www.w3.org/1999/xlink" viewBox="4895 55.05 209.756 97.229"><defs><style>.a{fill:none;}.b{clip-path:url(#a);}.c{fill:#063a88;}.d{fill:#00b8f1;}</style><clipPath id="a"><path class="a" d="M0,70.95H209.756V-26.279H0Z" transform="translate(0 26.279)"/></clipPath></defs><g transform="translate(4895 55.05)"><g class="b"><g transform="translate(0.001 60.944)"><path class="c" d="M5.114.518V3.882h.1A8.1,8.1,0,0,1,8.643.774a10.691,10.691,0,0,1,4.569-.966A11.821,11.821,0,0,1,18.662.977a11.244,11.244,0,0,1,3.789,3.108A13.06,13.06,0,0,1,24.682,8.6a19.666,19.666,0,0,1,.729,5.376,17.8,17.8,0,0,1-.729,5.095A12.861,12.861,0,0,1,22.477,23.4a10.91,10.91,0,0,1-3.685,3.008,11.267,11.267,0,0,1-5.165,1.121,10.571,10.571,0,0,1-4.6-1,8.639,8.639,0,0,1-3.452-2.93h-.1V36.092h-7.37V.518Zm9.575,20.9a5.882,5.882,0,0,0,1.976-1.861,7.6,7.6,0,0,0,1.062-2.679,15.233,15.233,0,0,0,.311-3.1,14.081,14.081,0,0,0-.337-3.108,8.11,8.11,0,0,0-1.114-2.727,6.223,6.223,0,0,0-2-1.939,5.659,5.659,0,0,0-2.982-.74A5.764,5.764,0,0,0,8.565,6,5.984,5.984,0,0,0,6.593,7.911a7.786,7.786,0,0,0-1.062,2.7,15.539,15.539,0,0,0-.314,3.16,14.276,14.276,0,0,0,.34,3.1,7.911,7.911,0,0,0,1.084,2.679,5.83,5.83,0,0,0,2,1.861,5.948,5.948,0,0,0,3.012.71,5.9,5.9,0,0,0,3.034-.71" transform="translate(1.894 0.192)"/></g><g transform="translate(28.498 60.942)"><path class="c" d="M1.552,3.348A8.687,8.687,0,0,1,4.461.647,12.756,12.756,0,0,1,8.43-.807a23,23,0,0,1,4.44-.433,30.908,30.908,0,0,1,4.1.281,12.69,12.69,0,0,1,3.792,1.1,7.459,7.459,0,0,1,2.8,2.268,6.263,6.263,0,0,1,1.091,3.848V19.96a27.288,27.288,0,0,0,.2,3.415,6.129,6.129,0,0,0,.729,2.446H18.109a10.021,10.021,0,0,1-.333-1.251,9.92,9.92,0,0,1-.185-1.295,9.646,9.646,0,0,1-4.151,2.5,17.007,17.007,0,0,1-4.88.714,13.371,13.371,0,0,1-3.581-.462A8.222,8.222,0,0,1,2.07,24.6,6.585,6.585,0,0,1,.128,22.15a8.094,8.094,0,0,1-.7-3.515,7.573,7.573,0,0,1,.807-3.7,6.588,6.588,0,0,1,2.076-2.316,9.468,9.468,0,0,1,2.908-1.3,31.527,31.527,0,0,1,3.293-.684c1.106-.17,2.2-.3,3.271-.411a19.774,19.774,0,0,0,2.856-.455,4.987,4.987,0,0,0,1.968-.9,1.94,1.94,0,0,0,.681-1.706,3.76,3.76,0,0,0-.392-1.861,2.8,2.8,0,0,0-1.04-1.069,4.118,4.118,0,0,0-1.506-.511A12.448,12.448,0,0,0,12.5,3.6a5.644,5.644,0,0,0-3.422.921A4.048,4.048,0,0,0,7.628,7.577H.257A8.308,8.308,0,0,1,1.552,3.348M16.111,13.567a12.711,12.711,0,0,1-1.5.381q-.81.15-1.687.255c-.588.067-1.177.152-1.765.252a13.728,13.728,0,0,0-1.635.411,4.86,4.86,0,0,0-1.4.688,3.306,3.306,0,0,0-.962,1.1A3.491,3.491,0,0,0,6.8,18.332a3.362,3.362,0,0,0,.363,1.628,2.782,2.782,0,0,0,.992,1.047,4.2,4.2,0,0,0,1.45.533,9.279,9.279,0,0,0,1.713.152,6.656,6.656,0,0,0,3.374-.71,4.865,4.865,0,0,0,1.765-1.706,5.437,5.437,0,0,0,.7-2.016,14.713,14.713,0,0,0,.129-1.632v-2.7a3.4,3.4,0,0,1-1.173.64" transform="translate(0.575 1.24)"/></g><g transform="translate(54.867 53.759)"><path class="c" d="M12.252,5.761V10.6H7.3V23.65A3.494,3.494,0,0,0,7.919,26.1a3.635,3.635,0,0,0,2.494.614c.414,0,.81-.018,1.191-.052a10.777,10.777,0,0,0,1.091-.152v5.605a18.1,18.1,0,0,1-2.076.2q-1.143.05-2.235.052a22.107,22.107,0,0,1-3.245-.229,7.83,7.83,0,0,1-2.7-.892A4.785,4.785,0,0,1,.6,29.359a6.622,6.622,0,0,1-.677-3.211V10.6H-4.538V5.761H-.076v-7.9H7.3v7.9Z" transform="translate(4.538 2.134)"/></g></g><path class="c" d="M27.417,16.725H20.043V-9.622h7.374Z" transform="translate(54.113 71.251)"/><g class="b"><g transform="translate(83.572 60.943)"><path class="c" d="M6.7,15.135a6.661,6.661,0,0,0,4.777,1.58,6.643,6.643,0,0,0,3.84-1.1,4.568,4.568,0,0,0,1.972-2.32h6.49a12.094,12.094,0,0,1-4.777,6.782,14.274,14.274,0,0,1-7.788,2.039,15.583,15.583,0,0,1-5.709-1A11.919,11.919,0,0,1,1.2,18.3a12.652,12.652,0,0,1-2.727-4.384,15.77,15.77,0,0,1-.958-5.6A15.206,15.206,0,0,1-1.5,2.8a12.986,12.986,0,0,1,2.8-4.407,13.2,13.2,0,0,1,4.336-2.93,14.093,14.093,0,0,1,5.576-1.069,12.974,12.974,0,0,1,5.972,1.3A11.907,11.907,0,0,1,21.366-.815a14.162,14.162,0,0,1,2.361,4.991,18.238,18.238,0,0,1,.522,5.864H4.887q.155,3.513,1.817,5.095M15.036,1.272A5.235,5.235,0,0,0,11.014-.156,6.532,6.532,0,0,0,8.08.432,5.563,5.563,0,0,0,6.212,1.886a5.313,5.313,0,0,0-.988,1.831,8.219,8.219,0,0,0-.337,1.735H16.875a8.293,8.293,0,0,0-1.839-4.181" transform="translate(2.483 5.606)"/></g><g transform="translate(112.588 60.944)"><path class="c" d="M5.114.518v3.67h.155A8.462,8.462,0,0,1,8.9.848a10.733,10.733,0,0,1,4.569-1.04A12.657,12.657,0,0,1,18.322.6a7.185,7.185,0,0,1,2.986,2.187A8.431,8.431,0,0,1,22.84,6.2a20.775,20.775,0,0,1,.44,4.462V26.869H15.91V11.988a9.073,9.073,0,0,0-1.04-4.869,4.051,4.051,0,0,0-3.685-1.606A5.143,5.143,0,0,0,6.827,7.274Q5.478,9.028,5.48,13.057V26.869H-1.894V.518Z" transform="translate(1.894 0.192)"/></g><g transform="translate(138.798 53.759)"><path class="c" d="M12.106,5.761V10.6H7.352V23.65A3.492,3.492,0,0,0,7.977,26.1a3.63,3.63,0,0,0,2.49.614c.414,0,.81-.018,1.191-.052a10.632,10.632,0,0,0,1.091-.152v5.605a18.1,18.1,0,0,1-2.076.2q-1.143.05-2.231.052A22.033,22.033,0,0,1,5.2,32.138a7.8,7.8,0,0,1-2.7-.892A4.769,4.769,0,0,1,.655,29.359a6.667,6.667,0,0,1-.673-3.211V10.6H-4.484V5.761H-.018v-7.9h7.37v7.9Z" transform="translate(4.484 2.134)"/></g><g transform="translate(157.486 61.654)"><path class="c" d="M13.259,19.228v-3.67H13.1a8.236,8.236,0,0,1-3.633,3.311A10.816,10.816,0,0,1,4.9,19.891a13.088,13.088,0,0,1-4.854-.766A6.982,6.982,0,0,1-2.939,16.96a8.4,8.4,0,0,1-1.528-3.415,20.485,20.485,0,0,1-.444-4.462V-7.122H2.463V7.759A9.1,9.1,0,0,0,3.5,12.628a4.043,4.043,0,0,0,3.685,1.606,5.152,5.152,0,0,0,4.358-1.757Q12.891,10.717,12.9,6.69V-7.122h7.366v26.35Z" transform="translate(4.911 7.122)"/></g><g transform="translate(184.894 60.944)"><path class="c" d="M5.473,14.968a4.285,4.285,0,0,0,1.273,1.376,5.506,5.506,0,0,0,1.791.788,8.363,8.363,0,0,0,2.1.255,8.059,8.059,0,0,0,1.635-.178,5.647,5.647,0,0,0,1.558-.562A3.465,3.465,0,0,0,15,15.63a2.647,2.647,0,0,0,.47-1.606q0-1.632-2.205-2.446A44.307,44.307,0,0,0,7.112,9.947c-1.077-.24-2.124-.518-3.145-.844A10.7,10.7,0,0,1,1.24,7.835,6.278,6.278,0,0,1-.68,5.844a5.543,5.543,0,0,1-.725-2.93A7.835,7.835,0,0,1-.392-1.267,7.486,7.486,0,0,1,2.28-3.842,11.94,11.94,0,0,1,6.016-5.163a23.138,23.138,0,0,1,4.259-.381,21.486,21.486,0,0,1,4.229.407,11.38,11.38,0,0,1,3.659,1.373,8.34,8.34,0,0,1,2.675,2.575,8.539,8.539,0,0,1,1.269,4.051H15.1A3.151,3.151,0,0,0,13.494.035,7.483,7.483,0,0,0,10.068-.7a12.727,12.727,0,0,0-1.35.078,4.351,4.351,0,0,0-1.325.333A2.716,2.716,0,0,0,6.379.442a1.938,1.938,0,0,0-.411,1.3,1.972,1.972,0,0,0,.721,1.58,5.711,5.711,0,0,0,1.894,1A24.058,24.058,0,0,0,11.259,5q1.51.305,3.063.662a31.886,31.886,0,0,1,3.141.866,10.459,10.459,0,0,1,2.723,1.35,6.6,6.6,0,0,1,1.92,2.09,6.032,6.032,0,0,1,.729,3.082,8.28,8.28,0,0,1-1.066,4.358A8.45,8.45,0,0,1,19,20.24a11.43,11.43,0,0,1-3.922,1.506,23.538,23.538,0,0,1-4.488.433,22.815,22.815,0,0,1-4.569-.459,12.277,12.277,0,0,1-3.97-1.528,8.76,8.76,0,0,1-2.853-2.83,8.683,8.683,0,0,1-1.221-4.41H4.981a3.925,3.925,0,0,0,.492,2.016" transform="translate(2.027 5.544)"/></g></g><g transform="translate(104.685 18.141)"><path class="c" d="M.086,13.672l7.729-.266L7.679-4.812-.032-5.064Z" transform="translate(0.032 5.064)"/></g><g transform="translate(98.84 23.601)"><path class="c" d="M13.866,5.492l-.059-7.285-18.943-.24.037,7.8Z" transform="translate(5.136 2.034)"/></g><g transform="translate(78.126 50.045)"><path class="d" d="M1.328.869-.492,9.464,13.053.718,6.334-.322Z" transform="translate(0.492 0.322)"/></g><g class="b"><g transform="translate(72.124 -0.001)"><path class="d" d="M46.915,4.654A5.877,5.877,0,0,0,43.2,2.848L-9.274-1.688A8.432,8.432,0,0,0-14.839-.319a5.628,5.628,0,0,0-2.534,4.632l0,40.784a5.746,5.746,0,0,0,2.564,4.717,8.455,8.455,0,0,0,5.616,1.4L43.7,46.67a5.739,5.739,0,0,0,3.7-1.831,5.822,5.822,0,0,0,1.572-4.007l-.4-32.218a5.879,5.879,0,0,0-1.661-3.959M19.274,1.132a2.378,2.378,0,0,1,2.172,2.275A1.939,1.939,0,0,1,19.3,5.353,2.373,2.373,0,0,1,17.1,3.07a1.942,1.942,0,0,1,2.176-1.939M44.851,41.094a.845.845,0,0,1-.274.614,1.407,1.407,0,0,1-.932.425L-9.2,45.733a2.089,2.089,0,0,1-1.384-.344.868.868,0,0,1-.407-.7l-.052-39.958a.856.856,0,0,1,.411-.692A2.056,2.056,0,0,1-9.271,3.7L43.249,7.318a1.474,1.474,0,0,1,.94.418.9.9,0,0,1,.281.61Z" transform="translate(17.377 1.724)"/></g><g transform="translate(105 1.152)"><path class="c" d="M2.695.012A3.272,3.272,0,0,0-1,3.278,4.012,4.012,0,0,0,2.746,7.134a3.264,3.264,0,0,0,3.6-3.278A4.016,4.016,0,0,0,2.695.012M2.732,5.38A2.032,2.032,0,0,1,.848,3.423,1.656,1.656,0,0,1,2.709,1.762,2.044,2.044,0,0,1,4.578,3.715,1.658,1.658,0,0,1,2.732,5.38" transform="translate(0.998 0.004)"/></g></g></g></svg>