<svg xmlns="http://www.w3.org/2000/svg" viewBox="0 0 21 22"><path fill="" d="m8.148 4.09-.49 1.06c-.17.39-.73.39-.9 0l-.49-1.05-1.06-.49a.5.5 0 0 1 0-.91l1.06-.49.49-1.06c.17-.39.73-.39.9 0l.49 1.06 1.06.48a.5.5 0 0 1 0 .91l-1.06.49Zm11.5 0-.49 1.06c-.17.39-.73.39-.9 0l-.49-1.05-1.06-.49a.5.5 0 0 1 0-.91l1.05-.49.49-1.06a.5.5 0 0 1 .91 0l.49 1.05 1.06.49a.5.5 0 0 1 0 .91l-1.06.49Zm-1.39 8.56-.49 1.06-1.06.49a.5.5 0 0 0 0 .91l1.06.49.49 1.06a.5.5 0 0 0 .91 0l.49-1.06 1.05-.5a.5.5 0 0 0 0-.91l-1.06-.49-.49-1.06c-.17-.38-.73-.38-.9.01Zm-4.67-7.21 2.83 2.83c.39.39.39 1.03-.01 1.41L5.238 20.85a.996.996 0 0 1-1.41 0l-2.83-2.83a.996.996 0 0 1 0-1.41l11.18-11.17a.996.996 0 0 1 1.41 0Zm-2.08 3.51 1.41 1.41 1.38-1.38-1.41-1.41-1.38 1.38Z"/></svg>
