<svg width="20" height="20" viewBox="0 0 20 20" fill="none" xmlns="http://www.w3.org/2000/svg">
<path d="M18.3334 16.875H18.1251V9.16667C18.1251 7.71 17.2901 6.875 15.8334 6.875H15.6251V5C15.6251 2.985 14.5151 1.875 12.5001 1.875H7.50008C5.48508 1.875 4.37508 2.985 4.37508 5V6.875H4.16675C2.71008 6.875 1.87508 7.71 1.87508 9.16667V16.875H1.66675C1.32175 16.875 1.04175 17.155 1.04175 17.5C1.04175 17.845 1.32175 18.125 1.66675 18.125H18.3334C18.6784 18.125 18.9584 17.845 18.9584 17.5C18.9584 17.155 18.6784 16.875 18.3334 16.875ZM5.62508 5C5.62508 3.68583 6.18591 3.125 7.50008 3.125H12.5001C13.8142 3.125 14.3751 3.68583 14.3751 5V16.875H12.2917V15C12.2917 13.7358 11.2642 12.7083 10.0001 12.7083C8.73591 12.7083 7.70841 13.7358 7.70841 15V16.875H5.62508V5ZM11.0417 16.875H8.95841V15C8.95841 14.4258 9.42591 13.9583 10.0001 13.9583C10.5742 13.9583 11.0417 14.4258 11.0417 15V16.875ZM3.12508 9.16667C3.12508 8.4075 3.40758 8.125 4.16675 8.125H4.37508V16.875H3.12508V9.16667ZM15.6251 16.875V8.125H15.8334C16.5926 8.125 16.8751 8.4075 16.8751 9.16667V16.875H15.6251ZM7.29175 5.83333C7.29175 5.48833 7.57175 5.20833 7.91675 5.20833H8.75008C9.09508 5.20833 9.37508 5.48833 9.37508 5.83333C9.37508 6.17833 9.09508 6.45833 8.75008 6.45833H7.91675C7.57175 6.45833 7.29175 6.17833 7.29175 5.83333ZM10.6251 5.83333C10.6251 5.48833 10.9051 5.20833 11.2501 5.20833H12.0834C12.4284 5.20833 12.7084 5.48833 12.7084 5.83333C12.7084 6.17833 12.4284 6.45833 12.0834 6.45833H11.2501C10.9051 6.45833 10.6251 6.17833 10.6251 5.83333ZM7.29175 8.33333C7.29175 7.98833 7.57175 7.70833 7.91675 7.70833H8.75008C9.09508 7.70833 9.37508 7.98833 9.37508 8.33333C9.37508 8.67833 9.09508 8.95833 8.75008 8.95833H7.91675C7.57175 8.95833 7.29175 8.67833 7.29175 8.33333ZM10.6251 8.33333C10.6251 7.98833 10.9051 7.70833 11.2501 7.70833H12.0834C12.4284 7.70833 12.7084 7.98833 12.7084 8.33333C12.7084 8.67833 12.4284 8.95833 12.0834 8.95833H11.2501C10.9051 8.95833 10.6251 8.67833 10.6251 8.33333ZM7.29175 10.8333C7.29175 10.4883 7.57175 10.2083 7.91675 10.2083H8.75008C9.09508 10.2083 9.37508 10.4883 9.37508 10.8333C9.37508 11.1783 9.09508 11.4583 8.75008 11.4583H7.91675C7.57175 11.4583 7.29175 11.1783 7.29175 10.8333ZM10.6251 10.8333C10.6251 10.4883 10.9051 10.2083 11.2501 10.2083H12.0834C12.4284 10.2083 12.7084 10.4883 12.7084 10.8333C12.7084 11.1783 12.4284 11.4583 12.0834 11.4583H11.2501C10.9051 11.4583 10.6251 11.1783 10.6251 10.8333Z" fill="#CA9B31"/>
</svg>
