<svg width="20" height="20" viewBox="0 0 20 20" fill="none" xmlns="http://www.w3.org/2000/svg">
<path d="M14.6875 1.875H5.3125C3.09583 1.875 1.875 3.09583 1.875 5.3125V14.6875C1.875 16.9042 3.09583 18.125 5.3125 18.125H14.6875C16.9042 18.125 18.125 16.9042 18.125 14.6875V5.3125C18.125 3.09583 16.9042 1.875 14.6875 1.875ZM16.875 14.6875C16.875 16.2208 16.2208 16.875 14.6875 16.875H5.3125C3.77917 16.875 3.125 16.2208 3.125 14.6875V5.3125C3.125 3.77917 3.77917 3.125 5.3125 3.125H14.6875C16.2208 3.125 16.875 3.77917 16.875 5.3125V14.6875ZM14.6584 7.09167C14.3201 6.92917 13.9267 6.97409 13.6342 7.20825L12.8892 7.80416C12.7592 6.75999 12.0601 6.16658 10.9159 6.16658H6.79158C5.52075 6.16658 4.79167 6.89587 4.79167 8.16671V11.8333C4.79167 13.1041 5.52075 13.8334 6.79158 13.8334H10.9159C12.0593 13.8334 12.7592 13.2392 12.8892 12.195L13.6334 12.7899C13.8101 12.9316 14.0225 13.0042 14.2375 13.0042C14.38 13.0042 14.5242 12.9717 14.6584 12.9075C14.9976 12.745 15.2083 12.4099 15.2083 12.0341V7.96407C15.2083 7.58907 14.9976 7.25501 14.6584 7.09167ZM11.6667 11.8333C11.6667 12.4075 11.4917 12.5834 10.9167 12.5834H6.7924C6.2174 12.5834 6.04248 12.4083 6.04248 11.8333V8.16671C6.04248 7.59254 6.2174 7.41658 6.7924 7.41658H10.9167C11.4917 7.41658 11.6667 7.59171 11.6667 8.16671V11.8333ZM13.9583 11.4492L12.9167 10.6158V9.38334L13.9583 8.55001V11.4492Z" fill="white" fill-opacity="0.9"/>
</svg>
