<svg width="14" height="16" viewBox="0 0 14 16" fill="none" xmlns="http://www.w3.org/2000/svg">
<path id="Vector" d="M8.50001 9.5H5.50001C4.7773 9.49842 4.06139 9.6396 3.39338 9.91544C2.72538 10.1913 2.11844 10.5963 1.6074 11.1074C1.09636 11.6184 0.691294 12.2254 0.415453 12.8934C0.139613 13.5614 -0.00156887 14.2773 1.31495e-05 15C1.31495e-05 15.5627 0.437346 16 1.00001 16H13C13.5307 16 14 15.5627 14 15C13.9982 13.5419 13.4182 12.1439 12.3872 11.1129C11.3561 10.0818 9.95816 9.50176 8.50001 9.5ZM1.50001 14.5C1.62685 13.5299 2.10302 12.6392 2.83935 11.995C3.57567 11.3507 4.52162 10.9969 5.50001 11H8.50001C9.47361 11.0027 10.413 11.3592 11.1433 12.0031C11.8735 12.647 12.3448 13.5344 12.4693 14.5H1.50001ZM7.00001 8C9.18668 8 11 6.21867 11 4C11 1.81333 9.18668 0 7.00001 0C4.78135 0 3.00001 1.81333 3.00001 4C3.00001 6.21867 4.78135 8 7.00001 8ZM7.00001 1.5C7.66251 1.50176 8.29738 1.76572 8.76584 2.23418C9.2343 2.70264 9.49825 3.3375 9.50001 4C9.5016 4.32875 9.43802 4.65455 9.31295 4.95859C9.18788 5.26262 9.00379 5.53885 8.77132 5.77131C8.53886 6.00377 8.26263 6.18786 7.9586 6.31294C7.65457 6.43801 7.32876 6.50159 7.00001 6.5C6.67047 6.50448 6.34336 6.44288 6.03802 6.31883C5.73269 6.19479 5.4553 6.0108 5.22225 5.77776C4.98921 5.54471 4.80523 5.26733 4.68118 4.96199C4.55713 4.65665 4.49553 4.32955 4.50001 4C4.50001 2.62533 5.59335 1.5 7.00001 1.5Z" fill="white"/>
</svg>
