<svg width="18" height="18" viewBox="0 0 18 18" fill="none" xmlns="http://www.w3.org/2000/svg">
<g id="edit-04" opacity="0.8">
<path id="Icon" d="M15.75 13.4999L14.9999 14.3205C14.6021 14.7555 14.0626 14.9999 13.5001 14.9999C12.9376 14.9999 12.3981 14.7555 12.0003 14.3205C11.6019 13.8863 11.0625 13.6425 10.5001 13.6425C9.93778 13.6425 9.39835 13.8863 8.99998 14.3205M2.25 14.9999H3.50591C3.87279 14.9999 4.05624 14.9999 4.22887 14.9585C4.38192 14.9217 4.52824 14.8611 4.66245 14.7789C4.81382 14.6861 4.94354 14.5564 5.20296 14.297L14.625 4.87493C15.2463 4.25361 15.2463 3.24625 14.625 2.62493C14.0037 2.00361 12.9963 2.00361 12.375 2.62493L2.95295 12.047C2.69352 12.3064 2.5638 12.4361 2.47104 12.5875C2.3888 12.7217 2.32819 12.868 2.29145 13.0211C2.25 13.1937 2.25 13.3772 2.25 13.744V14.9999Z" stroke="#667085" stroke-width="1.5" stroke-linecap="round" stroke-linejoin="round"/>
</g>
</svg>
