<svg width="24" height="22" viewBox="0 0 24 22" fill="none" xmlns="http://www.w3.org/2000/svg">
<path id="Vector" d="M0 1.33333C0 0.596954 0.596954 0 1.33333 0H22.6667C23.403 0 24 0.596954 24 1.33333C24 2.06971 23.403 2.66667 22.6667 2.66667H1.33333C0.596955 2.66667 0 2.06971 0 1.33333ZM8 10.6667C8 9.93029 8.59695 9.33333 9.33333 9.33333H22.6667C23.403 9.33333 24 9.93029 24 10.6667C24 11.403 23.403 12 22.6667 12H9.33333C8.59695 12 8 11.403 8 10.6667ZM0 20C0 19.2636 0.596954 18.6667 1.33333 18.6667H22.6667C23.403 18.6667 24 19.2636 24 20C24 20.7364 23.403 21.3333 22.6667 21.3333H1.33333C0.596955 21.3333 0 20.7364 0 20Z" fill="url(#paint0_linear_1_207)"/>
<defs>
<linearGradient id="paint0_linear_1_207" x1="12" y1="0" x2="12" y2="21.3333" gradientUnits="userSpaceOnUse">
<stop stop-color="#CCA62C"/>
<stop offset="1" stop-color="#EAD385"/>
</linearGradient>
</defs>
</svg>
