<svg width="26" height="26" viewBox="0 0 26 26" fill="none" xmlns="http://www.w3.org/2000/svg">
<path d="M11.0979 5.8541C11.6966 4.01148 14.3034 4.01148 14.9021 5.8541L15.4697 7.60081C15.7374 8.42486 16.5053 8.98278 17.3718 8.98278H19.2084C21.1458 8.98278 21.9514 11.462 20.3839 12.6008L18.8981 13.6803C18.1971 14.1896 17.9038 15.0924 18.1716 15.9164L18.7391 17.6631C19.3378 19.5057 17.2288 21.038 15.6614 19.8992L14.1756 18.8197C13.4746 18.3104 12.5254 18.3104 11.8244 18.8197L10.3386 19.8992C8.77116 21.038 6.6622 19.5057 7.2609 17.6631L7.82844 15.9164C8.09619 15.0924 7.80288 14.1896 7.1019 13.6803L5.61606 12.6008C4.04864 11.462 4.85419 8.98278 6.79163 8.98278H8.62823C9.49468 8.98278 10.2626 8.42486 10.5303 7.60081L11.0979 5.8541Z" fill="#F5AA73"/>
</svg>
