<svg width="20" height="21" viewBox="0 0 20 21" fill="none" xmlns="http://www.w3.org/2000/svg">
<g id="video-square">
<path id="video-square_2" d="M14.6875 2.375H5.3125C3.09583 2.375 1.875 3.59583 1.875 5.8125V15.1875C1.875 17.4042 3.09583 18.625 5.3125 18.625H14.6875C16.9042 18.625 18.125 17.4042 18.125 15.1875V5.8125C18.125 3.59583 16.9042 2.375 14.6875 2.375ZM16.875 15.1875C16.875 16.7208 16.2208 17.375 14.6875 17.375H5.3125C3.77917 17.375 3.125 16.7208 3.125 15.1875V5.8125C3.125 4.27917 3.77917 3.625 5.3125 3.625H14.6875C16.2208 3.625 16.875 4.27917 16.875 5.8125V15.1875ZM14.6584 7.59167C14.3201 7.42917 13.9267 7.47409 13.6342 7.70825L12.8892 8.30416C12.7592 7.25999 12.0601 6.66658 10.9159 6.66658H6.79158C5.52075 6.66658 4.79167 7.39587 4.79167 8.66671V12.3333C4.79167 13.6041 5.52075 14.3334 6.79158 14.3334H10.9159C12.0593 14.3334 12.7592 13.7392 12.8892 12.695L13.6334 13.2899C13.8101 13.4316 14.0225 13.5042 14.2375 13.5042C14.38 13.5042 14.5242 13.4717 14.6584 13.4075C14.9976 13.245 15.2083 12.9099 15.2083 12.5341V8.46407C15.2083 8.08907 14.9976 7.75501 14.6584 7.59167ZM11.6667 12.3333C11.6667 12.9075 11.4917 13.0834 10.9167 13.0834H6.7924C6.2174 13.0834 6.04248 12.9083 6.04248 12.3333V8.66671C6.04248 8.09254 6.2174 7.91658 6.7924 7.91658H10.9167C11.4917 7.91658 11.6667 8.09171 11.6667 8.66671V12.3333ZM13.9583 11.9492L12.9167 11.1158V9.88334L13.9583 9.05001V11.9492Z" fill="#D4AA2C"/>
</g>
</svg>
